<svg xmlns="http://www.w3.org/2000/svg" version="1.1" xmlns:xlink="http://www.w3.org/1999/xlink" xmlns:svgjs="http://svgjs.dev/svgjs" width="1000" height="1125" viewBox="0 0 1000 1125"><g transform="matrix(1,0,0,1,0.0006562499999631655,0)"><svg viewBox="0 0 320 360" data-background-color="#ffffff" preserveAspectRatio="xMidYMid meet" height="1125" width="1000" xmlns="http://www.w3.org/2000/svg" xmlns:xlink="http://www.w3.org/1999/xlink"><g id="tight-bounds" transform="matrix(1,0,0,1,-0.00020999999998139174,0)"><svg viewBox="0 0 320 360" height="360" width="320"><g><svg></svg></g><g><svg viewBox="0 0 320 360" height="360" width="320"><g><path transform="translate(-17.77778,2.22222) scale(3.55556,3.55556)" d="M95 52c0-12.871-5.692-24.431-14.682-32.318-7.887-8.99-19.447-14.682-32.318-14.682-23.71 0-43 19.29-43 43 0 12.868 5.69 24.426 14.677 32.313 7.887 8.993 19.449 14.687 32.323 14.687 0.084 0 0.166-0.006 0.25-0.006 0.084 0 0.166 0.006 0.25 0.006 23.472 0 42.5-19.028 42.5-42.5 0-0.084-0.006-0.166-0.006-0.25 0-0.084 0.006-0.166 0.006-0.25zM21.828 73.371c-4.245-5.978-6.77-13.259-6.822-21.121 0.135-20.511 16.732-37.109 37.244-37.244 7.862 0.052 15.144 2.577 21.121 6.822 6.853 6.645 11.129 15.93 11.129 26.172 0 20.126-16.374 36.5-36.5 36.5-10.242 0-19.527-4.276-26.172-11.129zM6 48c0-23.159 18.841-42 42-42 9.858 0 18.926 3.422 26.1 9.13-6.463-3.888-14.024-6.13-22.1-6.13-23.71 0-43 19.29-43 43 0 8.074 2.241 15.633 6.127 22.095-5.706-7.172-9.127-16.239-9.127-26.095zM52 89c-10.08 0-19.227-4.055-25.905-10.615 6.174 4.469 13.743 7.115 21.905 7.115 20.678 0 37.5-16.822 37.5-37.5 0-8.162-2.646-15.731-7.115-21.905 6.56 6.678 10.615 15.825 10.615 25.905 0 20.402-16.598 37-37 37z" fill="#1e55b3" fill-rule="nonzero" stroke="none" stroke-width="1" stroke-linecap="butt" stroke-linejoin="miter" stroke-miterlimit="10" stroke-dasharray="" stroke-dashoffset="0" font-family="none" font-weight="none" font-size="none" text-anchor="none" style="mix-blend-mode: normal" data-fill-palette-color="tertiary"></path></g><g transform="matrix(1,0,0,1,117.62870786525633,99)"><svg viewBox="0 0 84.74258426948734 162" height="162" width="84.74258426948734"><g><svg viewBox="0 0 84.74258426948734 162" height="162" width="84.74258426948734"><g><svg viewBox="0 0 156.6284853051997 299.4222425262823" height="162" width="84.74258426948734"><g transform="matrix(1,0,0,1,0,137.4222425262823)"><svg viewBox="0 0 156.6284853051997 162" height="162" width="156.6284853051997"><g id="textblocktransform"><svg viewBox="0 0 156.6284853051997 162" height="162" width="156.6284853051997" id="textblock"><g><svg viewBox="0 0 156.6284853051997 162" height="162" width="156.6284853051997"><g transform="matrix(1,0,0,1,0,0)"><svg width="156.6284853051997" viewBox="2.37 -32.4 31.319999999999997 32.4" height="162" data-palette-color="#1e55b3"><path d="M27.22 0L22.88 0 22.88-12.13 8.86-12.13 2.37-18.63 2.37-25.93 8.86-32.4 12.52-32.4 12.52-20.9 27.42-20.9 33.69-14.4 33.69-6.47 27.22 0ZM22.88-26.56L14.23-26.56 14.23-32.4 27.2-32.4 32.81-26.76 32.81-23.32 22.88-23.32 22.88-26.56ZM2.37-6.47L2.37-9.72 13.16-9.72 13.16-5.86 21.17-5.86 21.17 0 7.81 0 2.37-6.47Z" opacity="1" transform="matrix(1,0,0,1,0,0)" fill="#1e55b3" class="wordmark-text-0" data-fill-palette-color="primary" id="text-0"></path></svg></g></svg></g></svg></g></svg></g><g transform="matrix(1,0,0,1,29.916040693293148,0)"><svg viewBox="0 0 96.7964039186134 99.1779305262823" height="99.1779305262823" width="96.7964039186134"><g><svg xmlns="http://www.w3.org/2000/svg" xmlns:xlink="http://www.w3.org/1999/xlink" version="1.1" x="0" y="0" viewBox="6.2845299461620945 5.337153331468976 87.54508159514582 89.69899364919985" enable-background="new 0 0 100 100" xml:space="preserve" height="99.1779305262823" width="96.7964039186134" class="icon-icon-0" data-fill-palette-color="accent" id="icon-0"><path d="M35.1 42.4c0.5 4.2 0.1 7.9 1.3 11.5 1.5 4.1 3.1 8.2 4.6 12.3 0.6 1.5 1.6 2.2 3.2 2.7 5.5 1.4 11.1 3 15.8 6.4 2.4 1.7 4.7 3.5 6.9 5.4 2.2 1.8 3.4 4.4 4.9 6.7-1 1.8-1.8 3.5-2.8 5.2-1.4 2.3-2.7 2.7-5.4 2.3-2.1-0.3-4.3-0.5-6.3-1.3-3-1.2-5.6-2.9-7.8-5.3-1.2-1.4-2.7-2.7-4.2-3.7-1.8-1.2-3-2.7-4.1-4.4-1-1.6-1.8-3.3-2.8-4.9-0.3-0.5-0.9-1.2-1.5-1.3-3.8-0.7-7.5-1.7-11.2-3.2-0.1 0.6-0.2 1.1-0.1 1.5 0.3 2.4 0.6 4.8 0.9 7.3 0.4 3.2 2 5.7 4.3 7.7 2.5 2.2 2.9 2.7 0.6 6.2-1.2 1.8-2.2 2-3.9 0.6-3.4-2.6-5.7-5.8-6.1-10.3-0.4-4.6-1.3-9.1-1.9-13.7-0.2-1.4-0.8-2.2-2.1-2.8-2.2-0.9-4.3-2-5.9-3.8-2.4-2.6-4.3-5.5-5.1-9-0.1-0.5-0.2-1.2 0-1.6 1.5-3.4 2.9-6.8 6.4-8.8 2.2-1.3 3.2-1.3 4.9 0.6 1.5 1.7 2.8 3.5 4.1 5.3 0.3 0.4 0.6 1 0.7 1.5 0.5 2.9 1.1 5.8 1.4 8.7 0.2 1.7 0.6 2.8 2.4 3.4 2.2 0.7 4.3 1.6 6.5 2.4 0.2 0.1 0.5 0 1 0.1-0.1-0.7-0.2-1.2-0.4-1.7-0.5-1.4-1.1-2.9-1.6-4.3-0.4-1.1-0.8-2.3-0.9-3.4-0.4-3.6-0.7-7.2-1-10.8-0.1-1.7 0-3.3 0.1-5 0.1-1.2-0.3-1.9-1.3-2.6-2.3-1.7-4.4-3.6-6.6-5.4-0.4-0.4-0.9-0.7-1.1-1.2-1.6-3-3.3-5.9-4.8-9-0.5-1.1-0.7-2.4-0.6-3.6 0.3-4 2.4-6.9 5.8-8.9 1.4-0.8 2.8-1.6 4.1-2.4 1.3-0.8 2.7-0.9 4-0.1 1.8 1.1 3.4 2.4 4.5 4.2 2.1 3.4 3.2 7.1 3 10.9-0.1 2.7-1 5.3-1.5 8-0.1 0.5-0.3 1.1-0.4 1.6-0.2 1.3 0.2 2.2 1.3 3 2.8 2 5.9 3.2 9 4.4 5.5 2.1 11.1 4.3 16.6 6.4 0.6 0.2 1.3 0.4 2 0.6 0.2-0.8 0.5-1.4 0.6-2 0.4-2.5 0.7-5 1-7.5 0.1-0.9 0.1-1.7-1-2-4-1.4-6.8-4.5-10-7.1-2.9-2.4-4.8-5.5-6-8.9-1.2-3.4-0.5-6.7 1.5-9.6 0.9-1.3 2.2-2.3 3.4-3.3 2-1.5 4-1.3 6.2-0.1 3.9 2.1 5.7 5.6 7.2 9.4 0.7 1.7 1.1 3.4 1.7 5.2 1.1 3.4 0.9 6.9 1.2 10.4 0 0.7 0.1 1.4 0.1 2.1 1.9 0.8 3.8 0.6 5.6 0.6 3.6 0 7.1-0.1 10.7 0 1.4 0 2.8 0.4 4.1 0.8 1.3 0.4 2.3 1.3 2.6 2.8-0.5 0-0.9 0.1-1.3 0-2.6-1.3-5.4-1.7-8.3-1.6-3.6 0.1-7.3-0.1-10.8 0.7-0.9 0.2-1.9 0-3.1 0-0.4 3.5-1.5 6.8-1.2 10.3 0.1 1.4 1 1.6 2 2.1 3.2 1.4 6.6 2.7 9.7 4.5 4.9 2.8 8.9 6.7 12.9 10.7 1.1 1.1 1.4 2.4 0.5 3.8-0.4 0.6-0.6 1.4-0.9 2.1-0.8 2.5-2.5 4-4.9 4.8-1.6 0.6-3.3 1.1-4.9 1.7-1.8 0.7-3.5 0.4-5.3-0.3-3.8-1.5-6.5-4.3-8.5-7.7-2.5-4.1-4.1-8.6-4.4-13.4-0.1-1.6-0.7-2.3-2.2-2.7-7.5-2-14.7-4.8-21.8-7.9C38.8 43.6 37.2 43.1 35.1 42.4zM65.7 31.3c0-1.7 0.2-3.2 0.1-4.7-0.2-4.2-1.6-8-3.4-11.8-1.2-2.5-3-4.3-5.3-5.7-2.5-1.6-3.9-1-4.9 1.8-1.4 4.2-0.2 7.9 2.2 11.2 2.8 3.7 6.6 6.4 10.4 9C65 31.2 65.1 31.2 65.7 31.3zM69.2 54.9c0 0.5 0 0.8 0.1 1.1 0.9 2.3 1.7 4.7 2.9 6.9 1.4 2.7 3.4 5 5.8 6.8 2.1 1.6 4.4 2.3 7.1 1.4 1.1-0.4 2.2-0.5 3.2-0.8 2.3-0.6 2.9-2.1 1.4-4-0.8-1-1.7-2.1-2.8-2.8-3.9-2.7-7.9-5.3-12.3-7.1C73 55.6 71.3 54.8 69.2 54.9zM31 31c1.4-1.4 1.8-2.8 1.6-4.3-0.1-0.9-0.2-1.8-0.2-2.7 0-1.9-0.5-3.7-1.5-5.4-0.6-1.1-1.3-2.2-2-3.2-1-1.5-2.4-2.6-4-3.2-1.6-0.6-2.7-0.1-3.3 1.4-0.9 2.2-0.9 4.4 0.3 6.4 1.6 2.6 3.2 5.2 5.1 7.6C28.1 29 29.6 29.9 31 31zM65.4 88c-2.3-4-13.1-10.6-17.2-10.6C50.6 81.4 61.5 88.1 65.4 88zM12.8 48c-0.2 0.5-0.5 0.8-0.6 1.2-0.6 1.7 0 3.3 0.7 4.8 1.1 2.3 2.7 4.1 4.9 5.5C18.6 56.3 15.9 50.1 12.8 48z" fill="1E55B3" data-fill-palette-color="accent"></path></svg></g></svg></g><g></g></svg></g></svg></g></svg></g></svg></g><defs></defs></svg><rect width="320" height="360" fill="none" stroke="none" visibility="hidden"></rect></g></svg></g></svg>